Muli-Bold.ufo
<glyph name="period" format="1">
  <advance width="540"/>
  <unicode hex="002E"/>
  <outline>
    <contour>
      <point x="398" y="262" type="line"/>
      <point x="119" y="262" type="line"/>
      <point x="119" y="0" type="line"/>
      <point x="398" y="0" type="line"/>
    </contour>
  </outline>
</glyph>
<glyph name="four" format="1">
  <advance width="1189"/>
  <unicode hex="0034"/>
  <outline>
    <contour>
      <point x="927" y="0" type="line"/>
      <point x="927" y="330" type="line"/>
      <point x="1124" y="330" type="line"/>
      <point x="1124" y="516" type="line"/>
      <point x="923" y="516" type="line"/>
      <point x="923" y="1393" type="line"/>
      <point x="662" y="1393" type="line"/>
      <point x="35" y="484" type="line"/>
      <point x="35" y="330" type="line"/>
      <point x="679" y="330" type="line"/>
      <point x="679" y="0" type="line"/>
    </contour>
    <contour>
      <point x="289" y="516" type="line"/>
      <point x="425" y="700"/>
      <point x="546" y="879"/>
      <point x="682" y="1062" type="curve"/>
      <point x="682" y="516" type="line"/>
    </contour>
  </outline>
</glyph>
<glyph name="A" format="1">
  <advance width="1462"/>
  <unicode hex="0041"/>
  <outline>
    <contour>
      <point x="731" y="1456" type="move" name="top"/>
    </contour>
    <contour>
      <point x="731" y="0" type="move" name="bot"/>
    </contour>
    <contour>
      <point x="414" y="364" type="line"/>
      <point x="1038" y="364" type="line"/>
      <point x="1182" y="0" type="line"/>
      <point x="1454" y="0" type="line"/>
      <point x="848" y="1456" type="line"/>
      <point x="609" y="1456" type="line"/>
      <point x="8" y="0" type="line"/>
      <point x="273" y="0" type="line"/>
    </contour>
    <contour>
      <point x="724" y="1179" type="line"/>
      <point x="946" y="586" type="line"/>
      <point x="498" y="586" type="line"/>
    </contour>
  </outline>
</glyph>
<glyph name="B" format="1">
  <advance width="1356"/>
  <unicode hex="0042"/>
  <outline>
    <contour>
      <point x="716" y="1456" type="move" name="top"/>
    </contour>
    <contour>
      <point x="716" y="0" type="move" name="bot"/>
    </contour>
    <contour>
      <point x="708" y="0" type="line"/>
      <point x="1060" y="0"/>
      <point x="1240" y="196"/>
      <point x="1240" y="414" type="curve" smooth="yes"/>
      <point x="1240" y="588"/>
      <point x="1143" y="720"/>
      <point x="969" y="775" type="curve"/>
      <point x="1096" y="840"/>
      <point x="1173" y="957"/>
      <point x="1173" y="1088" type="curve" smooth="yes"/>
      <point x="1173" y="1429"/>
      <point x="810" y="1456"/>
      <point x="556" y="1456" type="curve"/>
      <point x="192" y="1456" type="line"/>
      <point x="192" y="0" type="line"/>
    </contour>
    <contour>
      <point x="434" y="1249" type="line"/>
      <point x="596" y="1249" type="line"/>
      <point x="777" y="1249"/>
      <point x="916" y="1220"/>
      <point x="916" y="1062" type="curve" smooth="yes"/>
      <point x="916" y="901"/>
      <point x="778" y="857"/>
      <point x="642" y="857" type="curve"/>
      <point x="434" y="857" type="line"/>
    </contour>
    <contour>
      <point x="614" y="649" type="line"/>
      <point x="853" y="649"/>
      <point x="981" y="597"/>
      <point x="981" y="419" type="curve" smooth="yes"/>
      <point x="981" y="275"/>
      <point x="869" y="207"/>
      <point x="665" y="207" type="curve"/>
      <point x="436" y="207" type="line"/>
      <point x="436" y="649" type="line"/>
    </contour>
  </outline>
</glyph>
<glyph name="D" format="1">
  <advance width="1566"/>
  <unicode hex="0044"/>
  <outline>
    <contour>
      <point x="825" y="1456" type="move" name="top"/>
    </contour>
    <contour>
      <point x="825" y="0" type="move" name="bot"/>
    </contour>
    <contour>
      <point x="198" y="0" type="line"/>
      <point x="636" y="0" type="line"/>
      <point x="1152" y="0"/>
      <point x="1459" y="279"/>
      <point x="1459" y="723" type="curve" smooth="yes"/>
      <point x="1459" y="1256"/>
      <point x="1029" y="1456"/>
      <point x="534" y="1456" type="curve"/>
      <point x="192" y="1456" type="line"/>
    </contour>
    <contour>
      <point x="438" y="1249" type="line"/>
      <point x="557" y="1249" type="line"/>
      <point x="983" y="1249"/>
      <point x="1203" y="1119"/>
      <point x="1203" y="724" type="curve" smooth="yes"/>
      <point x="1203" y="422"/>
      <point x="1023" y="207"/>
      <point x="649" y="207" type="curve"/>
      <point x="438" y="207" type="line"/>
    </contour>
  </outline>
</glyph>
<glyph name="F" format="1">
  <advance width="1159"/>
  <unicode hex="0046"/>
  <outline>
    <contour>
      <point x="635" y="1456" type="move" name="top"/>
    </contour>
    <contour>
      <point x="635" y="0" type="move" name="bot"/>
    </contour>
    <contour>
      <point x="435" y="636" type="line"/>
      <point x="1046" y="636" type="line"/>
      <point x="1046" y="844" type="line"/>
      <point x="435" y="844" type="line"/>
      <point x="435" y="1249" type="line"/>
      <point x="1079" y="1249" type="line"/>
      <point x="1079" y="1456" type="line"/>
      <point x="192" y="1456" type="line"/>
      <point x="192" y="0" type="line"/>
      <point x="435" y="0" type="line"/>
    </contour>
  </outline>
</glyph>
<glyph name="H" format="1">
  <advance width="1554"/>
  <unicode hex="0048"/>
  <outline>
    <contour>
      <point x="777" y="1456" type="move" name="top"/>
    </contour>
    <contour>
      <point x="777" y="0" type="move" name="bot"/>
    </contour>
    <contour>
      <point x="437" y="643" type="line"/>
      <point x="1123" y="643" type="line"/>
      <point x="1123" y="0" type="line"/>
      <point x="1362" y="0" type="line"/>
      <point x="1362" y="1456" type="line"/>
      <point x="1119" y="1456" type="line"/>
      <point x="1119" y="851" type="line"/>
      <point x="433" y="851" type="line"/>
      <point x="433" y="1456" type="line"/>
      <point x="192" y="1456" type="line"/>
      <point x="192" y="0" type="line"/>
      <point x="437" y="0" type="line"/>
    </contour>
  </outline>
</glyph>
<glyph name="L" format="1">
  <advance width="1159"/>
  <unicode hex="004C"/>
  <outline>
    <contour>
      <point x="650" y="1456" type="move" name="top"/>
    </contour>
    <contour>
      <point x="650" y="0" type="move" name="bot"/>
    </contour>
    <contour>
      <point x="1108" y="207" type="line"/>
      <point x="434" y="207" type="line"/>
      <point x="434" y="1456" type="line"/>
      <point x="192" y="1456" type="line"/>
      <point x="192" y="0" type="line"/>
      <point x="1108" y="0" type="line"/>
    </contour>
  </outline>
</glyph>
<glyph name="P" format="1">
  <advance width="1306"/>
  <unicode hex="0050"/>
  <outline>
    <contour>
      <point x="710" y="1456" type="move" name="top"/>
    </contour>
    <contour>
      <point x="710" y="0" type="move" name="bot"/>
    </contour>
    <contour>
      <point x="434" y="560" type="line"/>
      <point x="610" y="560" type="line"/>
      <point x="933" y="560"/>
      <point x="1229" y="692"/>
      <point x="1229" y="1006" type="curve" smooth="yes"/>
      <point x="1229" y="1381"/>
      <point x="901" y="1456"/>
      <point x="557" y="1456" type="curve"/>
      <point x="192" y="1456" type="line"/>
      <point x="192" y="0" type="line"/>
      <point x="440" y="0" type="line"/>
    </contour>
    <contour>
      <point x="434" y="1249" type="line"/>
      <point x="599" y="1249" type="line"/>
      <point x="815" y="1249"/>
      <point x="966" y="1204"/>
      <point x="966" y="1006" type="curve" smooth="yes"/>
      <point x="966" y="841"/>
      <point x="830" y="769"/>
      <point x="644" y="769" type="curve"/>
      <point x="434" y="769" type="line"/>
    </contour>
  </outline>
</glyph>
<glyph name="S" format="1">
  <advance width="1230"/>
  <unicode hex="0053"/>
  <outline>
    <contour>
      <point x="620" y="1456" type="move" name="top"/>
    </contour>
    <contour>
      <point x="620" y="0" type="move" name="bot"/>
    </contour>
    <contour>
      <point x="104" y="144" type="line"/>
      <point x="200" y="49"/>
      <point x="375" y="-23"/>
      <point x="581" y="-23" type="curve" smooth="yes"/>
      <point x="848" y="-23"/>
      <point x="1138" y="92"/>
      <point x="1138" y="389" type="curve" smooth="yes"/>
      <point x="1138" y="640"/>
      <point x="887" y="759"/>
      <point x="678" y="845" type="curve" smooth="yes"/>
      <point x="518" y="911"/>
      <point x="363" y="964"/>
      <point x="363" y="1088" type="curve" smooth="yes"/>
      <point x="363" y="1224"/>
      <point x="517" y="1275"/>
      <point x="649" y="1275" type="curve" smooth="yes"/>
      <point x="759" y="1275"/>
      <point x="894" y="1250"/>
      <point x="990" y="1158" type="curve"/>
      <point x="1120" y="1309" type="line"/>
      <point x="1011" y="1444"/>
      <point x="814" y="1483"/>
      <point x="645" y="1483" type="curve" smooth="yes"/>
      <point x="376" y="1483"/>
      <point x="105" y="1342"/>
      <point x="105" y="1080" type="curve" smooth="yes"/>
      <point x="105" y="831"/>
      <point x="348" y="730"/>
      <point x="557" y="646" type="curve" smooth="yes"/>
      <point x="712" y="583"/>
      <point x="881" y="511"/>
      <point x="881" y="393" type="curve" smooth="yes"/>
      <point x="881" y="254"/>
      <point x="750" y="184"/>
      <point x="567" y="184" type="curve" smooth="yes"/>
      <point x="443" y="184"/>
      <point x="293" y="245"/>
      <point x="205" y="315" type="curve"/>
    </contour>
  </outline>
</glyph>
<glyph name="U" format="1">
  <advance width="1506"/>
  <unicode hex="0055"/>
  <outline>
    <contour>
      <point x="753" y="1456" type="move" name="top"/>
    </contour>
    <contour>
      <point x="753" y="0" type="move" name="bot"/>
    </contour>
    <contour>
      <point x="753" y="184" type="curve" smooth="yes"/>
      <point x="550" y="184"/>
      <point x="414" y="259"/>
      <point x="414" y="553" type="curve" smooth="yes"/>
      <point x="414" y="1456" type="line"/>
      <point x="165" y="1456" type="line"/>
      <point x="165" y="570" type="line" smooth="yes"/>
      <point x="165" y="240"/>
      <point x="280" y="-23"/>
      <point x="753" y="-23" type="curve" smooth="yes"/>
      <point x="1226" y="-23"/>
      <point x="1341" y="240"/>
      <point x="1341" y="570" type="curve" smooth="yes"/>
      <point x="1341" y="1456" type="line"/>
      <point x="1092" y="1456" type="line"/>
      <point x="1092" y="553" type="line" smooth="yes"/>
      <point x="1092" y="259"/>
      <point x="956" y="184"/>
    </contour>
  </outline>
</glyph>
<glyph name="X" format="1">
  <advance width="1376"/>
  <unicode hex="0058"/>
  <outline>
    <contour>
      <point x="688" y="1456" type="move" name="top"/>
    </contour>
    <contour>
      <point x="688" y="0" type="move" name="bot"/>
    </contour>
    <contour>
      <point x="9" y="0" type="line"/>
      <point x="297" y="0" type="line"/>
      <point x="421" y="187"/>
      <point x="554" y="383"/>
      <point x="680" y="570" type="curve"/>
      <point x="1068" y="0" type="line"/>
      <point x="1367" y="0" type="line"/>
      <point x="1253" y="164"/>
      <point x="1115" y="360"/>
      <point x="996" y="528" type="curve" smooth="yes"/>
      <point x="947" y="599"/>
      <point x="895" y="671"/>
      <point x="846" y="742" type="curve"/>
      <point x="1355" y="1456" type="line"/>
      <point x="1075" y="1456" type="line"/>
      <point x="1006" y="1353"/>
      <point x="925" y="1236"/>
      <point x="854" y="1133" type="curve"/>
      <point x="704" y="913" type="line"/>
      <point x="341" y="1456" type="line"/>
      <point x="43" y="1456" type="line"/>
      <point x="403" y="944" type="line"/>
      <point x="451" y="874"/>
      <point x="500" y="808"/>
      <point x="546" y="741" type="curve"/>
    </contour>
  </outline>
</glyph>
<glyph name="b" format="1">
  <advance width="1256"/>
  <unicode hex="0062"/>
  <outline>
    <contour>
      <point x="649" y="1026" type="move" name="_top"/>
    </contour>
    <contour>
      <point x="649" y="0" type="move" name="bot"/>
    </contour>
    <contour>
      <point x="386" y="1463" type="line"/>
      <point x="151" y="1463" type="line"/>
      <point x="151" y="272" type="line" smooth="yes"/>
      <point x="151" y="243"/>
      <point x="150" y="215"/>
      <point x="143" y="0" type="curve"/>
      <point x="384" y="0" type="line"/>
      <point x="386" y="95" type="line"/>
      <point x="473" y="-10"/>
      <point x="588" y="-23"/>
      <point x="689" y="-23" type="curve" smooth="yes"/>
      <point x="951" y="-23"/>
      <point x="1156" y="182"/>
      <point x="1156" y="508" type="curve" smooth="yes"/>
      <point x="1156" y="802"/>
      <point x="993" y="1052"/>
      <point x="672" y="1052" type="curve" smooth="yes"/>
      <point x="541" y="1052"/>
      <point x="447" y="1004"/>
      <point x="386" y="952" type="curve"/>
    </contour>
    <contour>
      <point x="642" y="168" type="curve" smooth="yes"/>
      <point x="452" y="168"/>
      <point x="373" y="328"/>
      <point x="373" y="515" type="curve" smooth="yes"/>
      <point x="373" y="707"/>
      <point x="458" y="861"/>
      <point x="642" y="861" type="curve" smooth="yes"/>
      <point x="826" y="861"/>
      <point x="909" y="707"/>
      <point x="909" y="515" type="curve" smooth="yes"/>
      <point x="909" y="328"/>
      <point x="832" y="168"/>
    </contour>
  </outline>
</glyph>
<glyph name="d" format="1">
  <advance width="1278"/>
  <unicode hex="0064"/>
  <outline>
    <contour>
      <point x="606" y="1026" type="move" name="_top"/>
    </contour>
    <contour>
      <point x="606" y="0" type="move" name="bot"/>
    </contour>
    <contour>
      <point x="870" y="952" type="line"/>
      <point x="809" y="1004"/>
      <point x="715" y="1052"/>
      <point x="584" y="1052" type="curve" smooth="yes"/>
      <point x="263" y="1052"/>
      <point x="100" y="802"/>
      <point x="100" y="508" type="curve" smooth="yes"/>
      <point x="100" y="182"/>
      <point x="305" y="-23"/>
      <point x="567" y="-23" type="curve" smooth="yes"/>
      <point x="668" y="-23"/>
      <point x="783" y="-10"/>
      <point x="870" y="95" type="curve"/>
      <point x="872" y="0" type="line"/>
      <point x="1113" y="0" type="line"/>
      <point x="1106" y="215"/>
      <point x="1105" y="243"/>
      <point x="1105" y="272" type="curve" smooth="yes"/>
      <point x="1105" y="1463" type="line"/>
      <point x="870" y="1463" type="line"/>
    </contour>
    <contour>
      <point x="613" y="168" type="curve" smooth="yes"/>
      <point x="423" y="168"/>
      <point x="347" y="328"/>
      <point x="347" y="515" type="curve" smooth="yes"/>
      <point x="347" y="707"/>
      <point x="429" y="861"/>
      <point x="613" y="861" type="curve" smooth="yes"/>
      <point x="797" y="861"/>
      <point x="877" y="707"/>
      <point x="877" y="515" type="curve" smooth="yes"/>
      <point x="877" y="328"/>
      <point x="803" y="168"/>
    </contour>
  </outline>
</glyph>
<glyph name="e" format="1">
  <advance width="1187"/>
  <unicode hex="0065"/>
  <outline>
    <contour>
      <point x="593" y="1026" type="move" name="_top"/>
    </contour>
    <contour>
      <point x="593" y="0" type="move" name="bot"/>
    </contour>
    <contour>
      <point x="998" y="292" type="line"/>
      <point x="889" y="210"/>
      <point x="772" y="168"/>
      <point x="659" y="168" type="curve" smooth="yes"/>
      <point x="476" y="168"/>
      <point x="356" y="265"/>
      <point x="348" y="478" type="curve"/>
      <point x="1082" y="478" type="line"/>
      <point x="1086" y="494"/>
      <point x="1087" y="512"/>
      <point x="1087" y="523" type="curve" smooth="yes"/>
      <point x="1087" y="818"/>
      <point x="941" y="1052"/>
      <point x="615" y="1052" type="curve" smooth="yes"/>
      <point x="288" y="1052"/>
      <point x="100" y="803"/>
      <point x="100" y="512" type="curve" smooth="yes"/>
      <point x="100" y="197"/>
      <point x="306" y="-23"/>
      <point x="652" y="-23" type="curve" smooth="yes"/>
      <point x="811" y="-23"/>
      <point x="944" y="19"/>
      <point x="1066" y="107" type="curve"/>
    </contour>
    <contour>
      <point x="352" y="636" type="line"/>
      <point x="383" y="771"/>
      <point x="479" y="869"/>
      <point x="627" y="869" type="curve" smooth="yes"/>
      <point x="753" y="869"/>
      <point x="860" y="792"/>
      <point x="881" y="636" type="curve"/>
    </contour>
  </outline>
</glyph>
<glyph name="f" format="1">
  <advance width="812"/>
  <unicode hex="0066"/>
  <outline>
    <contour>
      <point x="405" y="1026" type="move" name="_top"/>
    </contour>
    <contour>
      <point x="405" y="0" type="move" name="bot"/>
    </contour>
    <contour>
      <point x="496" y="868" type="line"/>
      <point x="730" y="868" type="line"/>
      <point x="730" y="1026" type="line"/>
      <point x="496" y="1026" type="line"/>
      <point x="496" y="1298"/>
      <point x="531" y="1301"/>
      <point x="730" y="1301" type="curve" smooth="yes"/>
      <point x="738" y="1301" type="line"/>
      <point x="738" y="1484" type="line"/>
      <point x="686" y="1484" type="line" smooth="yes"/>
      <point x="336" y="1484"/>
      <point x="261" y="1359"/>
      <point x="261" y="1073" type="curve" smooth="yes"/>
      <point x="261" y="1026" type="line"/>
      <point x="72" y="1026" type="line"/>
      <point x="72" y="868" type="line"/>
      <point x="261" y="868" type="line"/>
      <point x="261" y="0" type="line"/>
      <point x="496" y="0" type="line"/>
    </contour>
  </outline>
</glyph>
<glyph name="h" format="1">
  <advance width="1188"/>
  <unicode hex="0068"/>
  <outline>
    <contour>
      <point x="598" y="1026" type="move" name="_top"/>
    </contour>
    <contour>
      <point x="598" y="0" type="move" name="bot"/>
    </contour>
    <contour>
      <point x="142" y="1463" type="line"/>
      <point x="142" y="0" type="line"/>
      <point x="378" y="0" type="line"/>
      <point x="378" y="619" type="line" smooth="yes"/>
      <point x="378" y="748"/>
      <point x="503" y="861"/>
      <point x="643" y="861" type="curve" smooth="yes"/>
      <point x="767" y="861"/>
      <point x="816" y="785"/>
      <point x="816" y="586" type="curve" smooth="yes"/>
      <point x="816" y="0" type="line"/>
      <point x="1053" y="0" type="line"/>
      <point x="1053" y="580" type="line" smooth="yes"/>
      <point x="1053" y="777"/>
      <point x="1002" y="1052"/>
      <point x="674" y="1052" type="curve" smooth="yes"/>
      <point x="563" y="1052"/>
      <point x="433" y="990"/>
      <point x="378" y="888" type="curve"/>
      <point x="378" y="1463" type="line"/>
    </contour>
  </outline>
</glyph>
<glyph name="i" format="1">
  <advance width="543"/>
  <unicode hex="0069"/>
  <outline>
    <contour>
      <point x="273" y="1026" type="move" name="_top"/>
    </contour>
    <contour>
      <point x="273" y="0" type="move" name="bot"/>
    </contour>
    <contour>
      <point x="159" y="1435" type="line"/>
      <point x="159" y="1226" type="line"/>
      <point x="388" y="1226" type="line"/>
      <point x="388" y="1435" type="line"/>
    </contour>
    <contour>
      <point x="159" y="0" type="line"/>
      <point x="388" y="0" type="line"/>
      <point x="388" y="1026" type="line"/>
      <point x="159" y="1026" type="line"/>
    </contour>
  </outline>
</glyph>
<glyph name="j" format="1">
  <advance width="503"/>
  <unicode hex="006A"/>
  <outline>
    <contour>
      <point x="114" y="1026" type="move" name="_top"/>
    </contour>
    <contour>
      <point x="114" y="0" type="move" name="bot"/>
    </contour>
    <contour>
      <point x="-134" y="-383" type="line"/>
      <point x="-68" y="-396"/>
      <point x="-17" y="-402"/>
      <point x="25" y="-402" type="curve" smooth="yes"/>
      <point x="323" y="-402"/>
      <point x="363" y="-129"/>
      <point x="363" y="96" type="curve" smooth="yes"/>
      <point x="363" y="1026" type="line"/>
      <point x="128" y="1026" type="line"/>
      <point x="128" y="62" type="line" smooth="yes"/>
      <point x="128" y="-119"/>
      <point x="69" y="-202"/>
      <point x="-17" y="-202" type="curve" smooth="yes"/>
      <point x="-36" y="-202"/>
      <point x="-68" y="-198"/>
      <point x="-134" y="-183" type="curve"/>
    </contour>
    <contour>
      <point x="128" y="1435" type="line"/>
      <point x="128" y="1226" type="line"/>
      <point x="363" y="1226" type="line"/>
      <point x="363" y="1435" type="line"/>
    </contour>
  </outline>
</glyph>
<glyph name="k" format="1">
  <advance width="1084"/>
  <unicode hex="006B"/>
  <outline>
    <contour>
      <point x="624" y="1026" type="move" name="_top"/>
    </contour>
    <contour>
      <point x="624" y="0" type="move" name="bot"/>
    </contour>
    <contour>
      <point x="1072" y="1026" type="line"/>
      <point x="747" y="1026" type="line"/>
      <point x="378" y="646" type="line"/>
      <point x="378" y="1463" type="line"/>
      <point x="143" y="1463" type="line"/>
      <point x="143" y="0" type="line"/>
      <point x="378" y="0" type="line"/>
      <point x="378" y="424" type="line"/>
      <point x="792" y="0" type="line"/>
      <point x="1105" y="0" type="line"/>
      <point x="556" y="539" type="line"/>
    </contour>
  </outline>
</glyph>
<glyph name="m" format="1">
  <advance width="1835"/>
  <unicode hex="006D"/>
  <outline>
    <contour>
      <point x="921" y="1026" type="move" name="_top"/>
    </contour>
    <contour>
      <point x="921" y="0" type="move" name="bot"/>
    </contour>
    <contour>
      <point x="138" y="1026" type="line"/>
      <point x="141" y="954"/>
      <point x="155" y="868"/>
      <point x="155" y="705" type="curve" smooth="yes"/>
      <point x="155" y="0" type="line"/>
      <point x="391" y="0" type="line"/>
      <point x="391" y="620" type="line" smooth="yes"/>
      <point x="391" y="745"/>
      <point x="512" y="861"/>
      <point x="651" y="861" type="curve" smooth="yes"/>
      <point x="788" y="861"/>
      <point x="811" y="729"/>
      <point x="811" y="628" type="curve" smooth="yes"/>
      <point x="811" y="0" type="line"/>
      <point x="1047" y="0" type="line"/>
      <point x="1047" y="582" type="line" smooth="yes"/>
      <point x="1047" y="719"/>
      <point x="1140" y="861"/>
      <point x="1297" y="861" type="curve" smooth="yes"/>
      <point x="1462" y="861"/>
      <point x="1464" y="669"/>
      <point x="1464" y="553" type="curve" smooth="yes"/>
      <point x="1464" y="0" type="line"/>
      <point x="1700" y="0" type="line"/>
      <point x="1700" y="629" type="line" smooth="yes"/>
      <point x="1700" y="885"/>
      <point x="1581" y="1052"/>
      <point x="1329" y="1052" type="curve" smooth="yes"/>
      <point x="1173" y="1052"/>
      <point x="1057" y="963"/>
      <point x="976" y="861" type="curve"/>
      <point x="913" y="984"/>
      <point x="814" y="1052"/>
      <point x="685" y="1052" type="curve" smooth="yes"/>
      <point x="558" y="1052"/>
      <point x="436" y="977"/>
      <point x="386" y="880" type="curve"/>
      <point x="386" y="1026" type="line"/>
    </contour>
  </outline>
</glyph>
<glyph name="r" format="1">
  <advance width="763"/>
  <unicode hex="0072"/>
  <outline>
    <contour>
      <point x="447" y="1026" type="move" name="_top"/>
    </contour>
    <contour>
      <point x="447" y="0" type="move" name="bot"/>
    </contour>
    <contour>
      <point x="391" y="0" type="line"/>
      <point x="391" y="579" type="line" smooth="yes"/>
      <point x="391" y="761"/>
      <point x="494" y="851"/>
      <point x="629" y="851" type="curve" smooth="yes"/>
      <point x="667" y="851"/>
      <point x="709" y="844"/>
      <point x="751" y="830" type="curve"/>
      <point x="751" y="1037" type="line"/>
      <point x="714" y="1047"/>
      <point x="679" y="1052"/>
      <point x="648" y="1052" type="curve" smooth="yes"/>
      <point x="539" y="1052"/>
      <point x="460" y="988"/>
      <point x="388" y="886" type="curve"/>
      <point x="388" y="1026" type="line"/>
      <point x="137" y="1026" type="line"/>
      <point x="143" y="957"/>
      <point x="155" y="832"/>
      <point x="155" y="768" type="curve" smooth="yes"/>
      <point x="155" y="0" type="line"/>
    </contour>
  </outline>
</glyph>
<glyph name="uni00AF" format="1">
  <advance width="850"/>
  <unicode hex="00AF"/>
  <outline>
    <contour>
      <point x="957" y="1479" type="line"/>
      <point x="79" y="1479" type="line"/>
      <point x="79" y="1294" type="line"/>
      <point x="957" y="1294" type="line"/>
    </contour>
  </outline>
</glyph>
<glyph name="middot" format="1">
  <advance width="444"/>
  <unicode hex="00B7"/>
  <outline>
    <contour>
      <point x="358" y="809" type="line"/>
      <point x="79" y="809" type="line"/>
      <point x="79" y="547" type="line"/>
      <point x="358" y="547" type="line"/>
    </contour>
  </outline>
</glyph>
<glyph name="multiply" format="1">
  <advance width="1458"/>
  <unicode hex="00D7"/>
  <outline>
    <contour>
      <point x="704" y="710" type="line"/>
      <point x="474" y="1005" type="line"/>
      <point x="318" y="856" type="line"/>
      <point x="553" y="552" type="line"/>
      <point x="277" y="249" type="line"/>
      <point x="423" y="98" type="line"/>
      <point x="495" y="177"/>
      <point x="580" y="270"/>
      <point x="653" y="349" type="curve" smooth="yes"/>
      <point x="665" y="360"/>
      <point x="681" y="379"/>
      <point x="693" y="392" type="curve"/>
      <point x="921" y="96" type="line"/>
      <point x="1084" y="251" type="line"/>
      <point x="1006" y="349"/>
      <point x="921" y="455"/>
      <point x="842" y="552" type="curve"/>
      <point x="1117" y="854" type="line"/>
      <point x="972" y="1003" type="line"/>
    </contour>
  </outline>
</glyph>
<glyph name="oslash" format="1">
  <advance width="1268"/>
  <unicode hex="00F8"/>
  <outline>
    <contour>
      <point x="638" y="1052" type="curve" smooth="yes"/>
      <point x="293" y="1052"/>
      <point x="100" y="805"/>
      <point x="100" y="513" type="curve" smooth="yes"/>
      <point x="100" y="317"/>
      <point x="187" y="142"/>
      <point x="350" y="48" type="curve"/>
      <point x="266" y="-132" type="line"/>
      <point x="377" y="-189" type="line"/>
      <point x="465" y="0" type="line"/>
      <point x="517" y="-15"/>
      <point x="575" y="-23"/>
      <point x="638" y="-23" type="curve" smooth="yes"/>
      <point x="978" y="-23"/>
      <point x="1168" y="225"/>
      <point x="1168" y="511" type="curve" smooth="yes"/>
      <point x="1168" y="712"/>
      <point x="1085" y="890"/>
      <point x="921" y="983" type="curve"/>
      <point x="1012" y="1179" type="line"/>
      <point x="901" y="1236" type="line"/>
      <point x="805" y="1031" type="line"/>
      <point x="755" y="1044"/>
      <point x="699" y="1052"/>
    </contour>
    <contour>
      <point x="346" y="515" type="curve" smooth="yes"/>
      <point x="346" y="707"/>
      <point x="437" y="861"/>
      <point x="635" y="861" type="curve" smooth="yes"/>
      <point x="666" y="861"/>
      <point x="695" y="857"/>
      <point x="721" y="849" type="curve"/>
      <point x="439" y="242" type="line"/>
      <point x="375" y="306"/>
      <point x="346" y="406"/>
    </contour>
    <contour>
      <point x="635" y="168" type="curve" smooth="yes"/>
      <point x="603" y="168"/>
      <point x="574" y="172"/>
      <point x="548" y="179" type="curve"/>
      <point x="830" y="786" type="line"/>
      <point x="892" y="723"/>
      <point x="922" y="625"/>
      <point x="922" y="515" type="curve" smooth="yes"/>
      <point x="922" y="328"/>
      <point x="839" y="168"/>
    </contour>
  </outline>
</glyph>
<glyph name="breve" format="1">
  <advance width="629"/>
  <unicode hex="02D8"/>
  <outline>
    <contour>
      <point x="303" y="1026" type="move" name="_top"/>
    </contour>
    <contour>
      <point x="292" y="1308" type="curve" smooth="yes"/>
      <point x="230" y="1308"/>
      <point x="154" y="1332"/>
      <point x="145" y="1427" type="curve"/>
      <point x="-20" y="1427" type="line"/>
      <point x="-6" y="1232"/>
      <point x="106" y="1142"/>
      <point x="292" y="1142" type="curve" smooth="yes"/>
      <point x="478" y="1142"/>
      <point x="590" y="1232"/>
      <point x="604" y="1427" type="curve"/>
      <point x="439" y="1427" type="line"/>
      <point x="430" y="1332"/>
      <point x="354" y="1308"/>
    </contour>
  </outline>
</glyph>
<glyph name="uni030F" format="1">
  <advance width="969"/>
  <unicode hex="030F"/>
  <outline>
    <contour>
      <point x="668" y="1026" type="move" name="_top"/>
    </contour>
    <contour>
      <point x="247" y="1105" type="line"/>
      <point x="-97" y="1463" type="line"/>
      <point x="187" y="1463" type="line"/>
      <point x="424" y="1105" type="line"/>
    </contour>
    <contour>
      <point x="571" y="1105" type="line"/>
      <point x="273" y="1463" type="line"/>
      <point x="541" y="1463" type="line"/>
      <point x="741" y="1105" type="line"/>
    </contour>
  </outline>
</glyph>
<glyph name="uni0311" format="1">
  <advance width="629"/>
  <unicode hex="0311"/>
  <outline>
    <contour>
      <point x="289" y="1026" type="move" name="_top"/>
    </contour>
    <contour>
      <point x="292" y="1261" type="curve" smooth="yes"/>
      <point x="354" y="1261"/>
      <point x="430" y="1237"/>
      <point x="439" y="1142" type="curve"/>
      <point x="604" y="1142" type="line"/>
      <point x="590" y="1337"/>
      <point x="478" y="1427"/>
      <point x="292" y="1427" type="curve" smooth="yes"/>
      <point x="106" y="1427"/>
      <point x="-6" y="1337"/>
      <point x="-20" y="1142" type="curve"/>
      <point x="145" y="1142" type="line"/>
      <point x="154" y="1237"/>
      <point x="230" y="1261"/>
    </contour>
  </outline>
</glyph>
<glyph name="approxequal" format="1">
  <advance width="1351"/>
  <unicode hex="2248"/>
  <outline>
    <contour>
      <point x="1001" y="587" type="line"/>
      <point x="964" y="483"/>
      <point x="924" y="422"/>
      <point x="866" y="422" type="curve" smooth="yes"/>
      <point x="844" y="422"/>
      <point x="807" y="441"/>
      <point x="768" y="462" type="curve" smooth="yes"/>
      <point x="749" y="472"/>
      <point x="730" y="481"/>
      <point x="707" y="490" type="curve"/>
      <point x="708" y="490" type="line"/>
      <point x="628" y="532"/>
      <point x="536" y="577"/>
      <point x="441" y="577" type="curve" smooth="yes"/>
      <point x="278" y="577"/>
      <point x="161" y="463"/>
      <point x="113" y="283" type="curve"/>
      <point x="303" y="232" type="line"/>
      <point x="328" y="335"/>
      <point x="373" y="399"/>
      <point x="442" y="399" type="curve" smooth="yes"/>
      <point x="478" y="399"/>
      <point x="537" y="371"/>
      <point x="591" y="343" type="curve"/>
      <point x="692" y="283"/>
      <point x="780" y="246"/>
      <point x="862" y="246" type="curve" smooth="yes"/>
      <point x="1044" y="246"/>
      <point x="1139" y="365"/>
      <point x="1183" y="540" type="curve"/>
    </contour>
    <contour>
      <point x="1000" y="933" type="line"/>
      <point x="962" y="829"/>
      <point x="922" y="768"/>
      <point x="865" y="768" type="curve" smooth="yes"/>
      <point x="832" y="768"/>
      <point x="771" y="794"/>
      <point x="695" y="837" type="curve"/>
      <point x="603" y="892"/>
      <point x="530" y="924"/>
      <point x="440" y="924" type="curve" smooth="yes"/>
      <point x="271" y="924"/>
      <point x="152" y="810"/>
      <point x="112" y="628" type="curve"/>
      <point x="305" y="587" type="line"/>
      <point x="335" y="681"/>
      <point x="375" y="750"/>
      <point x="437" y="750" type="curve" smooth="yes"/>
      <point x="480" y="750"/>
      <point x="531" y="722"/>
      <point x="587" y="688" type="curve" smooth="yes"/>
      <point x="694" y="623"/>
      <point x="768" y="596"/>
      <point x="861" y="596" type="curve" smooth="yes"/>
      <point x="1039" y="596"/>
      <point x="1140" y="711"/>
      <point x="1182" y="890" type="curve"/>
    </contour>
  </outline>
</glyph>
